<svg xmlns="http://www.w3.org/2000/svg" xmlns:xlink="http://www.w3.org/1999/xlink" width="500" zoomAndPan="magnify" viewBox="0 0 375 374.999991" height="500" preserveAspectRatio="xMidYMid meet" version="1.0"><defs><clipPath id="24e347e76a"><path d="M 115 239 L 256.609375 239 L 256.609375 337.476562 L 115 337.476562 Z M 115 239 " clip-rule="nonzero"/></clipPath><clipPath id="9a211219d0"><path d="M 139.4375 239 L 256.609375 239 L 256.609375 337.476562 L 139.4375 337.476562 Z M 139.4375 239 " clip-rule="nonzero"/></clipPath></defs><path fill="#6d841f" d="M 181.238281 216.609375 C 181.625 223.96875 182.082031 239.695312 182.890625 257.945312 L 179.449219 257.945312 C 179.199219 248.804688 179.074219 242.175781 178.945312 239.660156 C 177.8125 217.269531 178.300781 190.542969 180.054688 168.386719 C 181.40625 151.25 183.894531 126.359375 183.894531 112.695312 L 190.675781 106.4375 C 186.578125 119.148438 186.128906 131.816406 184.859375 145.03125 C 182.960938 164.78125 180.207031 196.855469 181.238281 216.609375 " fill-opacity="1" fill-rule="nonzero"/><path fill="#6d831d" d="M 165.109375 174.996094 C 170.855469 179.351562 178.316406 185.742188 180.40625 193.003906 L 165.109375 174.996094 " fill-opacity="1" fill-rule="nonzero"/><path fill="#6d831d" d="M 138.472656 160.289062 C 139.90625 158.847656 141.21875 157.152344 143.136719 156.273438 C 143.128906 156.523438 142.820312 156.792969 142.882812 157.054688 C 144.222656 155.855469 145.546875 154.578125 146.898438 153.359375 C 146.71875 153.894531 146.644531 154.539062 146.488281 155.066406 C 147.65625 153.632812 149.121094 152.492188 150.90625 151.902344 C 150.800781 152.257812 150.496094 152.308594 150.4375 152.683594 C 152.015625 152.019531 154.050781 151.15625 155.636719 151.03125 C 155.363281 151.292969 155.011719 151.570312 154.71875 151.851562 C 156.578125 151.480469 158.441406 151.074219 160.367188 151.039062 C 160.300781 151.175781 159.863281 151.414062 159.789062 151.640625 C 162.300781 151.847656 164.753906 152.074219 167.015625 153.019531 C 166.484375 153.035156 166.015625 153.078125 165.503906 153.140625 C 166.800781 153.585938 167.746094 154.449219 168.492188 155.386719 C 168.152344 155.417969 167.722656 155.328125 167.398438 155.425781 C 168.648438 156.207031 169.632812 157.433594 170.160156 158.8125 C 169.824219 158.761719 169.457031 158.554688 169.148438 158.535156 C 169.960938 160.035156 170.683594 161.652344 170.90625 163.371094 C 170.667969 163.039062 170.453125 162.640625 170.1875 162.367188 C 170.457031 163.949219 170.769531 165.511719 171.085938 167.054688 C 171.128906 167.132812 171.132812 167.132812 171.089844 167.054688 C 170.867188 166.757812 170.714844 166.4375 170.503906 166.136719 C 170.757812 167.53125 170.964844 168.9375 171 170.382812 C 171.003906 170.457031 171.007812 170.457031 171.007812 170.382812 C 170.828125 169.976562 170.683594 169.550781 170.503906 169.152344 C 170.511719 170.488281 170.5625 172.132812 170.589844 173.292969 C 170.355469 172.769531 170.015625 172.273438 169.777344 171.75 C 169.871094 172.816406 169.65625 173.953125 169.742188 175.027344 C 169.503906 174.839844 169.316406 174.550781 169.046875 174.324219 C 168.933594 175.917969 168.78125 177.488281 168.695312 179.085938 C 168.324219 178.472656 167.542969 177.949219 167.175781 177.445312 C 167.230469 178.902344 167.25 180.34375 167.140625 181.785156 C 166.902344 181.617188 166.652344 181.277344 166.347656 181.078125 C 166.453125 182.140625 166.09375 183.339844 166.226562 184.460938 C 166.066406 184.472656 165.738281 184.167969 165.40625 184.199219 C 165.460938 185.433594 165.152344 186.742188 165.101562 187.820312 C 164.601562 183.667969 140.335938 162.164062 138.472656 159.871094 L 138.472656 160.289062 " fill-opacity="1" fill-rule="nonzero"/><path fill="#9bb853" d="M 126.222656 154.0625 C 126.746094 156.226562 128.082031 158.203125 128.621094 160.382812 C 128.847656 160.1875 128.859375 159.785156 129.035156 159.589844 C 129.808594 161.03125 130.4375 162.484375 130.910156 164.019531 C 130.941406 164.042969 131.078125 163.445312 131.164062 163.410156 C 131.472656 164.171875 131.910156 164.921875 132.234375 165.660156 C 132.3125 165.257812 132.300781 164.855469 132.359375 164.449219 C 133.097656 165.894531 133.644531 167.578125 134.214844 169.085938 C 134.101562 168.246094 134.144531 167.398438 134.019531 166.632812 C 134.9375 167.878906 135.640625 169.398438 136.316406 170.855469 C 136.4375 170.574219 136.308594 170.257812 136.40625 169.964844 C 137.867188 171.253906 139.398438 173.066406 140.527344 174.804688 C 140.386719 174.222656 140.4375 173.476562 140.308594 172.878906 C 140.265625 172.859375 140.246094 172.828125 140.257812 172.789062 C 141.890625 175.914062 143.058594 176.945312 144.0625 177.945312 C 144.167969 177.902344 144.011719 177.382812 144.074219 177.355469 C 144.984375 178.351562 145.921875 179.246094 146.660156 180.328125 C 146.691406 179.898438 146.621094 179.511719 146.59375 179.113281 C 146.59375 179.113281 146.988281 179.082031 146.988281 179.085938 C 147.554688 179.863281 148.53125 180.65625 149.078125 181.5625 C 148.976562 181.195312 148.90625 180.644531 148.851562 180.277344 C 149.710938 181.558594 150.984375 182.550781 152.253906 183.351562 C 151.964844 182.867188 151.769531 182.277344 151.476562 181.8125 C 153.058594 182.46875 154.550781 183.566406 155.921875 184.675781 C 155.65625 184.175781 155.476562 183.640625 155.214844 183.167969 C 157.101562 183.84375 158.988281 184.964844 160.597656 186.148438 C 160.40625 185.851562 160.195312 185.265625 160.0625 184.902344 C 160.019531 184.832031 160 184.824219 160 184.875 C 161.792969 185.941406 164.320312 185.691406 165.082031 188 C 164.097656 183.574219 158.441406 178.875 155.304688 175.875 C 150.875 171.640625 139.640625 161.121094 138.472656 159.871094 C 138.472656 159.871094 130.40625 155.121094 126.222656 154.0625 " fill-opacity="1" fill-rule="nonzero"/><path fill="#5d7019" d="M 141.023438 160.480469 C 146.3125 157.835938 157.558594 152.085938 162.816406 156.664062 C 162.832031 156.753906 162.875 156.785156 162.949219 156.761719 C 158.828125 154.722656 149.738281 156.960938 148.058594 161.738281 C 149.765625 161.554688 151.449219 161.878906 153.007812 162.390625 C 151.515625 162.652344 149.578125 163.152344 148.4375 164.285156 C 154.765625 165.78125 163.222656 162.574219 167.269531 169.644531 C 163.003906 168.367188 156.003906 165.746094 151.863281 168.378906 C 151.871094 168.390625 151.898438 168.867188 151.894531 168.871094 C 155.285156 170.320312 159.933594 171.304688 161.554688 174.878906 C 160.351562 174.351562 158.808594 174.316406 157.621094 173.902344 C 160.816406 176.292969 162.675781 179.367188 163.355469 183.269531 C 163.363281 183.210938 163.355469 183.152344 163.328125 183.097656 C 158.589844 175.105469 150.515625 169.773438 143.921875 163.566406 C 143.121094 162.816406 142.382812 162.050781 141.53125 161.371094 L 141.023438 160.480469 " fill-opacity="1" fill-rule="nonzero"/><path fill="#7f9339" d="M 139.148438 161.210938 C 134.785156 157.925781 131.894531 161.226562 134.878906 165.613281 C 134.449219 164.507812 134.566406 163.085938 134.363281 161.949219 C 138.679688 160.757812 140.882812 164.210938 140.625 168.105469 C 140.871094 167.480469 141.085938 166.730469 141.285156 166.183594 C 143.46875 170.332031 145.875 176.246094 149.964844 179.003906 C 148.292969 176.488281 146.675781 173.691406 145.945312 170.867188 C 149.664062 173.171875 153.179688 176.777344 156.269531 180.214844 C 153.214844 172.492188 143.859375 169.144531 140.21875 162.101562 L 139.148438 161.210938 " fill-opacity="1" fill-rule="nonzero"/><path fill="#9bb853" d="M 213.617188 190.417969 C 213.210938 188.554688 211.933594 187.210938 210.414062 186.066406 C 210.28125 186.285156 210.519531 186.667969 210.378906 186.871094 C 208.777344 186.269531 207.472656 184.921875 206.332031 183.601562 C 206.285156 183.855469 206.484375 184.183594 206.425781 184.488281 C 205.023438 183.777344 203.519531 182.707031 202.226562 181.703125 C 202.292969 182.085938 202.433594 182.449219 202.476562 182.820312 C 200.921875 182.085938 199.125 181.230469 197.625 180.464844 C 197.628906 180.777344 197.886719 181.066406 197.90625 181.363281 C 196.261719 180.773438 194.648438 180.023438 192.945312 179.628906 C 192.964844 179.972656 193.113281 180.355469 193.128906 180.746094 C 191.628906 180.910156 189.917969 180.789062 188.472656 180.839844 C 188.964844 181.050781 189.386719 181.320312 189.882812 181.59375 C 188.183594 181.507812 186.410156 181.488281 184.757812 181.269531 C 184.957031 181.550781 185.292969 181.730469 185.515625 182.007812 C 184.140625 182.101562 182.726562 182.304688 181.433594 182.632812 C 181.707031 182.785156 182.042969 182.679688 182.320312 182.863281 C 181.21875 183.640625 179.980469 184.566406 179.015625 185.523438 C 179.484375 185.542969 180.023438 185.605469 180.453125 185.632812 C 179.328125 186.761719 177.898438 187.773438 176.859375 188.976562 C 177.558594 188.972656 178.191406 189.210938 178.890625 189.191406 C 177.207031 190.335938 175.414062 191.699219 174.054688 193.347656 C 174.210938 193.347656 174.613281 192.964844 174.824219 192.933594 C 174.859375 192.972656 174.894531 193.003906 174.933594 193.039062 C 174.457031 193.542969 173.917969 194.566406 173.511719 195.082031 C 173.816406 195.113281 174.351562 194.984375 174.628906 195.117188 C 173.703125 196.089844 173.277344 197.164062 172.792969 198.414062 C 173.246094 197.910156 173.914062 197.566406 174.425781 197.109375 C 173.941406 198.289062 173.535156 199.671875 173.304688 201.003906 C 173.667969 200.800781 174.214844 200.554688 174.621094 200.304688 C 174.164062 200.871094 173.886719 201.855469 173.433594 202.480469 C 174.070312 202.25 174.84375 202.363281 175.460938 202.183594 C 174.535156 203.769531 173.699219 205.367188 173.015625 207.035156 C 173.410156 206.871094 173.925781 206.691406 174.3125 206.542969 C 173.859375 207.738281 173.722656 209.101562 173.410156 210.355469 C 173.808594 210.292969 174.21875 210.128906 174.625 210.070312 C 173.519531 212.503906 172.347656 214.671875 172.039062 217.410156 C 174.851562 213.824219 209.394531 194.195312 214.449219 190.523438 L 213.617188 190.417969 " fill-opacity="1" fill-rule="nonzero"/><path fill="#6d831d" d="M 213.824219 191.042969 C 216.078125 189.566406 218.691406 186.828125 222.125 186.386719 C 219.917969 189.710938 216.484375 192.414062 214.234375 195.789062 C 214.199219 195.367188 214.222656 194.910156 214.226562 194.492188 C 212.289062 195.605469 210.90625 197.683594 209.160156 199.183594 C 209.191406 199.042969 209.480469 198.585938 209.546875 198.328125 C 208.4375 199.230469 207.320312 200.257812 206.253906 201.222656 C 206.359375 200.8125 206.515625 200.300781 206.636719 199.894531 C 204.917969 200.96875 203.339844 202.632812 201.886719 204.027344 C 202.066406 203.527344 202.207031 202.894531 202.375 202.382812 C 201.039062 203.171875 199.949219 204.546875 198.980469 205.789062 C 199.035156 205.394531 199.195312 204.964844 199.253906 204.570312 C 198.519531 205.246094 197.347656 205.984375 196.613281 206.828125 C 196.789062 206.363281 197.011719 205.90625 197.179688 205.503906 C 195.703125 206.066406 194.449219 207.140625 193.132812 208.152344 C 193.273438 207.753906 193.492188 207.347656 193.648438 206.964844 C 191.738281 207.496094 190.050781 208.949219 188.472656 210.242188 C 188.394531 210.007812 188.707031 209.726562 188.65625 209.453125 C 187.207031 210.042969 186.097656 211.332031 184.84375 212.226562 C 184.84375 211.914062 185.101562 211.675781 185.097656 211.402344 C 183.171875 212.476562 181.382812 214.214844 179.4375 215.457031 C 179.507812 215.132812 179.75 214.859375 179.824219 214.550781 C 177.089844 215.597656 174.367188 216.863281 171.742188 218.046875 C 180.179688 208.339844 190.367188 201.703125 201.976562 196.320312 C 205.796875 194.550781 213.824219 191.042969 213.824219 191.042969 " fill-opacity="1" fill-rule="nonzero"/><path fill="#7f9339" d="M 212.371094 190.558594 C 210.308594 186.527344 200.738281 184.066406 196.457031 184.519531 C 199.171875 186.035156 205.492188 186.679688 206.054688 190.3125 C 204.625 190.746094 202.898438 190.625 201.46875 190.203125 C 202.042969 190.628906 202.621094 191.441406 203.101562 191.828125 C 196.871094 194.226562 185.195312 184.207031 179.164062 191.691406 C 183.832031 191.988281 192.632812 190.957031 195.882812 194.917969 C 193.859375 195.933594 191.136719 195.195312 189.589844 196.636719 C 190.601562 196.851562 191.589844 197.746094 192.191406 197.984375 C 187.386719 199.117188 179.34375 198.699219 177.214844 204.402344 C 180.160156 203.359375 183.367188 201.503906 186.585938 201.230469 C 183.613281 205.113281 178.332031 206.519531 175.84375 211.164062 C 186.53125 204.980469 195.988281 196.832031 207.90625 192.589844 C 209.453125 192.039062 211.03125 191.613281 212.601562 191.132812 L 212.371094 190.558594 " fill-opacity="1" fill-rule="nonzero"/><path fill="#543822" d="M 149.394531 243.527344 C 149.394531 251.300781 143.089844 257.605469 135.3125 257.605469 C 127.535156 257.605469 121.230469 251.300781 121.230469 243.527344 C 121.230469 235.753906 127.535156 229.449219 135.3125 229.449219 C 143.089844 229.449219 149.394531 235.753906 149.394531 243.527344 " fill-opacity="1" fill-rule="nonzero"/><path fill="#543822" d="M 171.039062 243.527344 C 171.039062 251.300781 164.734375 257.605469 156.957031 257.605469 C 149.183594 257.605469 142.878906 251.300781 142.878906 243.527344 C 142.878906 235.753906 149.183594 229.449219 156.957031 229.449219 C 164.734375 229.449219 171.039062 235.753906 171.039062 243.527344 " fill-opacity="1" fill-rule="nonzero"/><path fill="#543822" d="M 192.683594 238.597656 C 192.683594 246.371094 186.378906 252.675781 178.601562 252.675781 C 170.824219 252.675781 164.519531 246.371094 164.519531 238.597656 C 164.519531 230.820312 170.824219 224.519531 178.601562 224.519531 C 186.378906 224.519531 192.683594 230.820312 192.683594 238.597656 " fill-opacity="1" fill-rule="nonzero"/><path fill="#543822" d="M 210.792969 243.527344 C 210.792969 251.300781 204.488281 257.605469 196.710938 257.605469 C 188.9375 257.605469 182.632812 251.300781 182.632812 243.527344 C 182.632812 235.753906 188.9375 229.449219 196.710938 229.449219 C 204.488281 229.449219 210.792969 235.753906 210.792969 243.527344 " fill-opacity="1" fill-rule="nonzero"/><path fill="#543822" d="M 234.648438 243.527344 C 234.648438 251.300781 228.34375 257.605469 220.566406 257.605469 C 212.789062 257.605469 206.484375 251.300781 206.484375 243.527344 C 206.484375 235.753906 212.789062 229.449219 220.566406 229.449219 C 228.34375 229.449219 234.648438 235.753906 234.648438 243.527344 " fill-opacity="1" fill-rule="nonzero"/><g clip-path="url(#24e347e76a)"><path fill="#a9663c" d="M 256.300781 239.210938 L 115.28125 239.210938 L 139.9375 337.476562 L 234.601562 337.476562 L 256.300781 239.210938 " fill-opacity="1" fill-rule="nonzero"/></g><g clip-path="url(#9a211219d0)"><path fill="#915733" d="M 256.300781 239.210938 L 186.804688 239.210938 L 186.710938 319.710938 L 139.9375 337.476562 L 234.601562 337.476562 L 256.300781 239.210938 " fill-opacity="1" fill-rule="nonzero"/></g><path fill="#5d7019" d="M 176.214844 137.785156 C 174.492188 141.039062 175.484375 147.089844 173.511719 151.085938 C 176.238281 148.542969 177.535156 144.523438 178.222656 140.507812 L 176.214844 137.785156 " fill-opacity="1" fill-rule="nonzero"/><path fill="#5d7019" d="M 178.667969 141.222656 C 178.3125 146.386719 175.191406 149.867188 177.046875 155.414062 C 177.042969 155.523438 177.042969 155.523438 177.039062 155.414062 C 177.09375 150.351562 180.449219 147.203125 180.25 141.914062 L 178.667969 141.222656 " fill-opacity="1" fill-rule="nonzero"/><path fill="#5d7019" d="M 184.71875 141.652344 C 184.195312 147.027344 187.21875 151.480469 189.453125 155.773438 C 188.949219 149.308594 186.046875 146.28125 186.136719 141.792969 L 184.71875 141.652344 " fill-opacity="1" fill-rule="nonzero"/><path fill="#5d7019" d="M 187.675781 142.941406 C 187.21875 146.742188 189.390625 149.75 192.121094 151.511719 C 190.285156 148.113281 188.367188 144.925781 189.5625 140.648438 L 187.675781 142.941406 " fill-opacity="1" fill-rule="nonzero"/><path fill="#e63621" d="M 172.425781 85.925781 C 170.203125 88.070312 175.546875 88.957031 177.628906 88.167969 C 178.445312 89.199219 178.351562 90.300781 177.839844 91.378906 C 180.71875 91.554688 182.710938 89.785156 185.800781 89.773438 C 188.253906 89.761719 192.480469 92.214844 193.882812 89.828125 C 196.367188 89.777344 198.375 88.898438 199.851562 87.121094 C 199.875 87.074219 199.90625 87.035156 199.949219 87.007812 C 199.910156 87.035156 199.875 87.074219 199.851562 87.121094 C 200.855469 90.691406 198.644531 94.53125 197.441406 96.066406 C 193.15625 96.640625 189.667969 97.710938 186.109375 100.328125 C 183.113281 102.527344 176.457031 109.992188 174.585938 102.824219 C 173.929688 100.324219 174.953125 96.683594 174.601562 94.015625 C 174.320312 91.820312 170.058594 87.226562 172.425781 85.925781 " fill-opacity="1" fill-rule="nonzero"/><path fill="#f8847c" d="M 159.210938 91.941406 C 160.945312 89.273438 161.648438 90.183594 163.164062 89.988281 C 165.335938 89.707031 167.242188 90.324219 167.171875 91.113281 C 168.335938 92.507812 172.390625 91.933594 175.648438 91.148438 C 177.730469 92.941406 176.800781 94.101562 177.527344 95.488281 C 178.136719 96.660156 179.25 97.214844 178.785156 98.324219 C 178.203125 99.722656 175.371094 99.082031 176.347656 101.558594 C 177.066406 103.386719 178.042969 102.246094 178.789062 101.058594 C 179.445312 100.011719 178.503906 98.949219 179.339844 98.421875 C 180.960938 97.394531 182.609375 94.613281 183.183594 94.191406 C 186.15625 92.011719 187.9375 93.652344 191.179688 94.257812 C 195.71875 95.109375 198.449219 92.855469 205.566406 95.710938 C 202.671875 97.601562 200.058594 102.726562 198.585938 105.808594 C 197.003906 109.132812 193.933594 113.070312 192.371094 116.304688 C 190.753906 119.652344 191.082031 123.929688 190.105469 127.335938 C 189.40625 129.78125 189.058594 134.101562 186.476562 135.519531 C 178.773438 139.746094 176.402344 121.242188 174.722656 117.359375 C 171.804688 110.605469 169.800781 106.023438 165.800781 99.914062 C 164.097656 97.304688 161.589844 93.886719 159.210938 91.941406 " fill-opacity="1" fill-rule="nonzero"/><path fill="#f65b50" d="M 159.101562 93.128906 C 160.839844 90.457031 161.539062 91.367188 163.058594 91.175781 C 165.226562 90.894531 167.136719 91.511719 167.0625 92.292969 C 168.226562 93.691406 172.285156 93.117188 175.539062 92.332031 C 177.625 94.128906 176.691406 95.285156 177.417969 96.671875 C 178.03125 97.847656 179.140625 98.402344 178.679688 99.507812 C 178.09375 100.90625 175.265625 100.261719 176.238281 102.746094 C 176.957031 104.574219 177.933594 103.433594 178.683594 102.242188 C 179.339844 101.199219 178.394531 100.132812 179.230469 99.605469 C 180.855469 98.582031 182.503906 95.796875 183.078125 95.375 C 186.046875 93.195312 187.828125 94.835938 191.070312 95.445312 C 195.609375 96.292969 198.34375 94.039062 205.457031 96.894531 C 202.566406 98.785156 199.949219 103.910156 198.480469 106.996094 C 196.894531 110.320312 193.828125 114.253906 192.265625 117.488281 C 190.648438 120.839844 190.972656 125.113281 190 128.519531 C 189.296875 130.964844 188.953125 135.285156 186.367188 136.703125 C 178.667969 140.929688 176.296875 122.425781 174.617188 118.542969 C 171.699219 111.792969 169.695312 107.207031 165.695312 101.097656 C 163.988281 98.492188 161.480469 95.074219 159.101562 93.128906 " fill-opacity="1" fill-rule="nonzero"/><path fill="#9bb853" d="M 183.460938 143.164062 C 178.515625 139.832031 179.292969 134.328125 178.660156 129.460938 C 180.652344 131.160156 182.609375 135.292969 184.835938 130.898438 C 185.46875 131.980469 185.382812 134.207031 185.871094 135.339844 C 187.464844 134.4375 185.898438 132.367188 189.429688 128.820312 C 190.875 133.753906 189.394531 141.507812 184.316406 143.757812 L 183.460938 143.164062 " fill-opacity="1" fill-rule="nonzero"/><path fill="#759036" d="M 184.707031 145.855469 C 185.25 139.863281 188.011719 134.363281 190 128.519531 C 191.464844 135.394531 191.769531 141.925781 185.132812 145.878906 L 184.707031 145.855469 " fill-opacity="1" fill-rule="nonzero"/><path fill="#759036" d="M 184.707031 145.855469 C 186.925781 140.917969 183.226562 138.339844 181.390625 135.226562 C 179.714844 132.378906 179.125 129.648438 176.769531 127.148438 C 177.433594 131.445312 174.457031 136.699219 176.039062 140.644531 C 177.085938 143.253906 182.074219 147.148438 184.707031 145.855469 " fill-opacity="1" fill-rule="nonzero"/><path fill="#ce2c24" d="M 188.121094 129.925781 C 189.078125 125.757812 188.539062 121.367188 190.953125 117.53125 C 193.015625 114.257812 195.96875 111.058594 197.207031 107.347656 C 194.699219 109.023438 192.417969 112.480469 190.496094 114.847656 C 188.746094 117 187.046875 119.425781 186.800781 122.277344 C 186.566406 124.945312 188.035156 127.667969 187.660156 130.148438 L 188.121094 129.925781 " fill-opacity="1" fill-rule="nonzero"/><path fill="#ce2c24" d="M 183.144531 129.738281 C 184.964844 125.488281 183.953125 120.550781 181.691406 116.824219 C 179.722656 113.574219 178.253906 109.769531 177.171875 106.289062 C 177.828125 109.109375 177.679688 111.40625 179.003906 114.105469 C 180.113281 116.363281 181.539062 118.679688 182.257812 121.085938 C 182.847656 123.066406 183.269531 125.480469 182.996094 127.535156 L 183.144531 129.738281 " fill-opacity="1" fill-rule="nonzero"/><path fill="#ce2c24" d="M 178.816406 127.242188 C 181.460938 122.933594 178.363281 117.746094 176.761719 113.628906 C 175.8125 111.191406 175.773438 108.898438 175.605469 106.316406 C 175.898438 108.332031 175.222656 110.433594 175.695312 112.589844 C 176.195312 114.902344 177.417969 116.914062 178.078125 119.105469 C 178.722656 121.253906 179.613281 124.464844 178.484375 126.554688 L 178.816406 127.242188 " fill-opacity="1" fill-rule="nonzero"/><path fill="#ce2c24" d="M 193.882812 89.828125 C 195.644531 89.902344 199 88.929688 199.851562 87.121094 C 199.851562 87.121094 199.484375 87.070312 199.484375 87.074219 C 197.582031 87.273438 196 88.445312 194.46875 89.5625 L 193.882812 89.828125 " fill-opacity="1" fill-rule="nonzero"/><path fill="#ce2c24" d="M 177.628906 88.167969 C 176.238281 88.632812 170.484375 88.816406 171.992188 86.277344 C 173.464844 83.792969 177.308594 86.253906 177.628906 88.167969 " fill-opacity="1" fill-rule="nonzero"/><path fill="#546727" d="M 185.285156 144.324219 C 186.121094 140.257812 187.871094 136.058594 189.710938 132.429688 C 189.800781 138.207031 188.824219 139.945312 185.519531 144.429688 L 185.285156 144.324219 " fill-opacity="1" fill-rule="nonzero"/><path fill="#546727" d="M 184.253906 144.886719 C 184.246094 139.652344 179.632812 135.484375 178.234375 130.652344 C 177.984375 134.867188 175.078125 145.835938 183.242188 145.285156 L 184.253906 144.886719 " fill-opacity="1" fill-rule="nonzero"/></svg>