<svg xmlns="http://www.w3.org/2000/svg" xmlns:xlink="http://www.w3.org/1999/xlink" width="500" zoomAndPan="magnify" viewBox="0 0 375 374.999991" height="500" preserveAspectRatio="xMidYMid meet" version="1.0"><defs><clipPath id="86c6ebca37"><path d="M 116.601562 239 L 258.347656 239 L 258.347656 337.476562 L 116.601562 337.476562 Z M 116.601562 239 " clip-rule="nonzero"/></clipPath><clipPath id="bac96ce589"><path d="M 141.179688 239 L 258.347656 239 L 258.347656 337.476562 L 141.179688 337.476562 Z M 141.179688 239 " clip-rule="nonzero"/></clipPath></defs><path fill="#6d841f" d="M 182.957031 240.316406 C 183.34375 243.457031 183.796875 250.164062 184.609375 257.945312 L 181.164062 257.945312 C 180.914062 254.046875 180.789062 251.21875 180.664062 250.148438 C 179.527344 240.597656 180.019531 229.199219 181.769531 219.753906 C 183.125 212.441406 185.609375 201.828125 185.609375 196 L 192.390625 193.332031 C 188.292969 198.753906 187.84375 204.15625 186.574219 209.789062 C 184.675781 218.214844 181.921875 231.894531 182.957031 240.316406 " fill-opacity="1" fill-rule="nonzero"/><path fill="#6d831d" d="M 166.824219 174.996094 C 172.574219 179.351562 180.035156 185.742188 182.125 193.003906 L 166.824219 174.996094 " fill-opacity="1" fill-rule="nonzero"/><path fill="#9bb853" d="M 181.96875 192.226562 C 182.371094 190.363281 183.648438 189.015625 185.167969 187.875 C 185.300781 188.089844 185.0625 188.476562 185.207031 188.679688 C 186.804688 188.074219 188.113281 186.730469 189.25 185.410156 C 189.296875 185.664062 189.101562 185.992188 189.15625 186.292969 C 190.558594 185.585938 192.0625 184.515625 193.355469 183.511719 C 193.289062 183.894531 193.152344 184.257812 193.109375 184.628906 C 194.660156 183.894531 196.457031 183.039062 197.960938 182.273438 C 197.957031 182.585938 197.699219 182.875 197.675781 183.171875 C 199.320312 182.582031 200.9375 181.832031 202.636719 181.4375 C 202.617188 181.78125 202.472656 182.164062 202.457031 182.550781 C 203.957031 182.71875 205.664062 182.597656 207.109375 182.648438 C 206.617188 182.859375 206.199219 183.128906 205.703125 183.402344 C 207.402344 183.316406 209.171875 183.296875 210.824219 183.078125 C 210.625 183.355469 210.292969 183.539062 210.066406 183.816406 C 211.441406 183.90625 212.859375 184.113281 214.152344 184.441406 C 213.878906 184.589844 213.539062 184.488281 213.265625 184.667969 C 214.363281 185.449219 215.605469 186.371094 216.566406 187.332031 C 216.097656 187.351562 215.5625 187.414062 215.132812 187.441406 C 216.253906 188.570312 217.683594 189.582031 218.726562 190.785156 C 218.023438 190.78125 217.390625 191.019531 216.691406 190.996094 C 218.375 192.144531 220.167969 193.507812 221.527344 195.152344 C 221.371094 195.152344 220.972656 194.773438 220.757812 194.742188 C 220.726562 194.777344 220.6875 194.8125 220.648438 194.847656 C 221.128906 195.351562 221.664062 196.371094 222.070312 196.886719 C 221.765625 196.917969 221.230469 196.792969 220.957031 196.921875 C 221.878906 197.894531 222.308594 198.972656 222.792969 200.222656 C 222.335938 199.71875 221.667969 199.371094 221.160156 198.917969 C 221.644531 200.097656 222.046875 201.476562 222.277344 202.8125 C 221.917969 202.605469 221.371094 202.363281 220.960938 202.109375 C 221.417969 202.675781 221.695312 203.664062 222.148438 204.289062 C 221.511719 204.058594 220.742188 204.167969 220.121094 203.992188 C 221.046875 205.574219 221.882812 207.175781 222.566406 208.839844 C 222.175781 208.675781 221.660156 208.496094 221.273438 208.351562 C 221.722656 209.542969 221.859375 210.910156 222.175781 212.164062 C 221.773438 212.101562 221.367188 211.933594 220.960938 211.878906 C 222.066406 214.308594 223.238281 216.480469 223.546875 219.214844 C 220.730469 215.632812 186.1875 196.003906 181.132812 192.332031 L 181.96875 192.226562 " fill-opacity="1" fill-rule="nonzero"/><path fill="#6d831d" d="M 181.761719 192.851562 C 179.503906 191.371094 176.890625 188.636719 173.457031 188.195312 C 175.667969 191.519531 179.097656 194.222656 181.347656 197.597656 C 181.382812 197.175781 181.359375 196.714844 181.359375 196.300781 C 183.296875 197.414062 184.675781 199.492188 186.421875 200.992188 C 186.390625 200.851562 186.101562 200.394531 186.039062 200.136719 C 187.148438 201.039062 188.265625 202.066406 189.328125 203.027344 C 189.222656 202.621094 189.066406 202.105469 188.945312 201.699219 C 190.664062 202.777344 192.242188 204.441406 193.695312 205.835938 C 193.515625 205.335938 193.378906 204.703125 193.207031 204.191406 C 194.542969 204.980469 195.632812 206.351562 196.605469 207.597656 C 196.546875 207.203125 196.386719 206.773438 196.328125 206.378906 C 197.0625 207.054688 198.234375 207.792969 198.96875 208.636719 C 198.796875 208.171875 198.570312 207.714844 198.402344 207.3125 C 199.878906 207.871094 201.132812 208.949219 202.453125 209.960938 C 202.3125 209.558594 202.089844 209.152344 201.933594 208.773438 C 203.847656 209.304688 205.535156 210.757812 207.109375 212.050781 C 207.1875 211.816406 206.875 211.535156 206.925781 211.257812 C 208.375 211.851562 209.484375 213.136719 210.742188 214.035156 C 210.742188 213.722656 210.480469 213.480469 210.488281 213.210938 C 212.414062 214.285156 214.203125 216.023438 216.144531 217.261719 C 216.078125 216.941406 215.832031 216.667969 215.757812 216.355469 C 218.496094 217.40625 221.214844 218.667969 223.84375 219.851562 C 215.402344 210.148438 205.21875 203.511719 193.609375 198.128906 C 189.789062 196.355469 181.761719 192.851562 181.761719 192.851562 " fill-opacity="1" fill-rule="nonzero"/><path fill="#7f9339" d="M 183.214844 192.367188 C 185.277344 188.335938 194.847656 185.871094 199.125 186.324219 C 196.410156 187.84375 190.089844 188.488281 189.53125 192.121094 C 190.960938 192.554688 192.683594 192.429688 194.113281 192.011719 C 193.539062 192.4375 192.964844 193.246094 192.484375 193.636719 C 198.714844 196.035156 210.390625 186.011719 216.421875 193.496094 C 211.75 193.792969 202.949219 192.765625 199.699219 196.726562 C 201.722656 197.742188 204.449219 197.003906 205.992188 198.445312 C 204.984375 198.660156 203.992188 199.554688 203.394531 199.792969 C 208.195312 200.925781 216.238281 200.507812 218.371094 206.210938 C 215.421875 205.164062 212.214844 203.3125 208.996094 203.039062 C 211.96875 206.917969 217.25 208.328125 219.742188 212.972656 C 209.054688 206.789062 199.59375 198.636719 187.679688 194.398438 C 186.132812 193.847656 184.554688 193.417969 182.984375 192.941406 L 183.214844 192.367188 " fill-opacity="1" fill-rule="nonzero"/><path fill="#543822" d="M 151.113281 243.527344 C 151.113281 251.300781 144.808594 257.605469 137.03125 257.605469 C 129.253906 257.605469 122.945312 251.300781 122.945312 243.527344 C 122.945312 235.753906 129.253906 229.449219 137.03125 229.449219 C 144.808594 229.449219 151.113281 235.753906 151.113281 243.527344 " fill-opacity="1" fill-rule="nonzero"/><path fill="#543822" d="M 172.753906 243.527344 C 172.753906 251.300781 166.453125 257.605469 158.675781 257.605469 C 150.898438 257.605469 144.59375 251.300781 144.59375 243.527344 C 144.59375 235.753906 150.898438 229.449219 158.675781 229.449219 C 166.453125 229.449219 172.753906 235.753906 172.753906 243.527344 " fill-opacity="1" fill-rule="nonzero"/><path fill="#543822" d="M 194.398438 238.597656 C 194.398438 246.371094 188.097656 252.675781 180.320312 252.675781 C 172.542969 252.675781 166.238281 246.371094 166.238281 238.597656 C 166.238281 230.820312 172.542969 224.519531 180.320312 224.519531 C 188.097656 224.519531 194.398438 230.820312 194.398438 238.597656 " fill-opacity="1" fill-rule="nonzero"/><path fill="#543822" d="M 212.511719 243.527344 C 212.511719 251.300781 206.207031 257.605469 198.429688 257.605469 C 190.652344 257.605469 184.347656 251.300781 184.347656 243.527344 C 184.347656 235.753906 190.652344 229.449219 198.429688 229.449219 C 206.207031 229.449219 212.511719 235.753906 212.511719 243.527344 " fill-opacity="1" fill-rule="nonzero"/><path fill="#543822" d="M 236.363281 243.527344 C 236.363281 251.300781 230.058594 257.605469 222.285156 257.605469 C 214.507812 257.605469 208.199219 251.300781 208.199219 243.527344 C 208.199219 235.753906 214.507812 229.449219 222.285156 229.449219 C 230.058594 229.449219 236.363281 235.753906 236.363281 243.527344 " fill-opacity="1" fill-rule="nonzero"/><g clip-path="url(#86c6ebca37)"><path fill="#a9663c" d="M 258.015625 239.210938 L 116.996094 239.210938 L 141.65625 337.476562 L 236.316406 337.476562 L 258.015625 239.210938 " fill-opacity="1" fill-rule="nonzero"/></g><g clip-path="url(#bac96ce589)"><path fill="#915733" d="M 258.015625 239.210938 L 188.523438 239.210938 L 188.429688 319.710938 L 141.65625 337.476562 L 236.316406 337.476562 L 258.015625 239.210938 " fill-opacity="1" fill-rule="nonzero"/></g></svg>