<svg xmlns="http://www.w3.org/2000/svg" xmlns:xlink="http://www.w3.org/1999/xlink" width="500" zoomAndPan="magnify" viewBox="0 0 375 374.999991" height="500" preserveAspectRatio="xMidYMid meet" version="1.0"><defs><clipPath id="a158c9e626"><path d="M 90.1875 40 L 285 40 L 285 314 L 90.1875 314 Z M 90.1875 40 " clip-rule="nonzero"/></clipPath></defs><path fill="#d9dad9" d="M 263.078125 309.777344 L 262.433594 313.40625 C 259.375 320.710938 250.429688 326.554688 235.59375 330.9375 C 220.65625 335.316406 203.0625 337.089844 182.820312 336.261719 C 163.5 335.105469 148.046875 331.722656 136.464844 326.109375 C 132.753906 324.296875 129.695312 322.320312 127.292969 320.183594 L 124.265625 316.882812 C 122.597656 314.613281 121.757812 312.246094 121.738281 309.777344 C 122.246094 302.207031 129.144531 295.90625 142.4375 290.878906 C 155.730469 285.851562 172.390625 283.242188 192.410156 283.050781 C 212.429688 283.242188 229.085938 285.851562 242.378906 290.878906 C 255.675781 295.90625 262.574219 302.207031 263.078125 309.777344 " fill-opacity="1" fill-rule="nonzero"/><g clip-path="url(#a158c9e626)"><path fill="#8d6e63" d="M 284.191406 133.082031 L 282.683594 120.003906 C 277.246094 93.765625 264.03125 73.164062 242.953125 58.316406 C 221.789062 43.410156 197.273438 37.503906 169.828125 42.472656 C 143.460938 47.25 122.132812 60.550781 108.140625 82.207031 C 96.878906 99.644531 94.691406 109.273438 93.03125 116.382812 C 90.746094 126.160156 90.207031 133.335938 90.796875 142.25 C 92.597656 169.625 108.136719 187.816406 122.359375 209.285156 C 139.539062 235.21875 176.613281 287.652344 192.527344 313.460938 C 213.097656 276.441406 245.808594 224.855469 259.109375 202.800781 C 272.410156 180.746094 284.796875 160.507812 284.191406 133.082031 Z M 284.191406 133.082031 " fill-opacity="1" fill-rule="nonzero"/></g><path fill="#fefefe" d="M 227.507812 136.878906 L 226.824219 142.253906 C 224.453125 153.019531 218.898438 161.414062 210.160156 167.433594 C 201.363281 173.441406 191.304688 175.492188 179.988281 173.578125 C 169.21875 171.207031 160.828125 165.652344 154.808594 156.914062 C 152.882812 154.089844 151.335938 151.046875 150.175781 147.78125 L 148.765625 142.773438 C 148.03125 139.339844 147.769531 135.789062 147.976562 132.117188 C 148.9375 120.871094 153.378906 111.730469 161.308594 104.695312 C 169.234375 97.664062 178.839844 94.34375 190.125 94.734375 C 201.371094 95.691406 210.511719 100.132812 217.546875 108.0625 C 224.578125 115.992188 227.898438 125.597656 227.507812 136.878906 " fill-opacity="1" fill-rule="nonzero"/></svg>