<svg xmlns="http://www.w3.org/2000/svg" xmlns:xlink="http://www.w3.org/1999/xlink" width="1024" zoomAndPan="magnify" viewBox="0 0 768 767.999994" height="1024" preserveAspectRatio="xMidYMid meet" version="1.0"><path fill="#11b723" d="M 533.132812 290.058594 C 467.289062 330.574219 467.695312 415.652344 362.847656 386.585938 C 362.847656 386.585938 355.195312 386.804688 378.925781 354.058594 C 392.996094 334.652344 416.578125 305.644531 441.347656 295.363281 C 467.050781 284.695312 537.527344 287.355469 533.132812 290.058594 Z M 533.132812 290.058594 " fill-opacity="1" fill-rule="evenodd"/><path fill="#4ca51e" d="M 357.117188 347.695312 C 357.003906 346.117188 357.25 344.476562 357.886719 343.066406 C 359.304688 339.9375 362.125 339.140625 364.1875 341.289062 C 364.464844 341.578125 365.871094 342.78125 366.132812 346.226562 C 366.164062 346.621094 366.207031 348.628906 366.226562 351.949219 C 366.371094 377.996094 366.125 496.886719 366.140625 520.808594 C 366.140625 522.804688 366.148438 524.320312 366.148438 524.636719 C 366.265625 527.859375 364.867188 530.863281 362.726562 531.679688 C 360.300781 532.605469 357.835938 530.367188 357.226562 526.6875 C 357.214844 526.609375 357.078125 524.535156 357.074219 520.820312 C 357.058594 496.914062 357.304688 378.09375 357.164062 352.0625 C 357.152344 349.996094 357.125 348.152344 357.117188 347.695312 Z M 357.117188 347.695312 " fill-opacity="1" fill-rule="evenodd"/><path fill="#6dbe45" d="M 233.050781 238.917969 C 269.808594 289.175781 259.269531 364.457031 366.214844 353.332031 C 366.214844 353.332031 368.550781 350.554688 360.085938 316.933594 C 355.597656 299.125 345 270.664062 315.066406 257.132812 C 293.066406 247.191406 230.46875 235.390625 233.050781 238.917969 Z M 233.050781 238.917969 " fill-opacity="1" fill-rule="evenodd"/></svg>