<svg xmlns="http://www.w3.org/2000/svg" xmlns:xlink="http://www.w3.org/1999/xlink" width="500" zoomAndPan="magnify" viewBox="0 0 375 374.999991" height="500" preserveAspectRatio="xMidYMid meet" version="1.0"><defs><clipPath id="210cd290d4"><path d="M 124.050781 239 L 265.621094 239 L 265.621094 337.476562 L 124.050781 337.476562 Z M 124.050781 239 " clip-rule="nonzero"/></clipPath><clipPath id="d56ca77300"><path d="M 149.199219 239 L 265.621094 239 L 265.621094 337.476562 L 149.199219 337.476562 Z M 149.199219 239 " clip-rule="nonzero"/></clipPath></defs><path fill="#6d841f" d="M 190.554688 216.609375 C 190.945312 223.96875 191.394531 239.695312 192.207031 257.945312 L 188.765625 257.945312 C 188.515625 248.804688 188.390625 242.175781 188.265625 239.660156 C 187.125 217.269531 187.617188 190.542969 189.371094 168.386719 C 190.726562 151.25 193.207031 126.359375 193.207031 112.695312 L 199.992188 106.4375 C 195.894531 119.148438 195.449219 131.816406 194.179688 145.03125 C 192.277344 164.78125 189.527344 196.855469 190.554688 216.609375 " fill-opacity="1" fill-rule="nonzero"/><path fill="#5d7019" d="M 185.011719 133.382812 C 182.410156 137.429688 183.910156 144.964844 180.929688 149.9375 C 185.046875 146.777344 187.007812 141.769531 188.042969 136.769531 L 185.011719 133.382812 " fill-opacity="1" fill-rule="nonzero"/><path fill="#5d7019" d="M 188.714844 137.660156 C 188.179688 144.085938 183.46875 148.417969 186.269531 155.328125 C 186.265625 155.460938 186.265625 155.460938 186.257812 155.328125 C 186.339844 149.027344 191.402344 145.105469 191.097656 138.523438 L 188.714844 137.660156 " fill-opacity="1" fill-rule="nonzero"/><path fill="#5d7019" d="M 197.84375 138.195312 C 197.046875 144.882812 201.609375 150.425781 204.984375 155.773438 C 204.226562 147.726562 199.84375 143.960938 199.988281 138.371094 L 197.84375 138.195312 " fill-opacity="1" fill-rule="nonzero"/><path fill="#5d7019" d="M 202.300781 139.800781 C 201.617188 144.527344 204.890625 148.273438 209.007812 150.46875 C 206.238281 146.238281 203.347656 142.269531 205.152344 136.945312 L 202.300781 139.800781 " fill-opacity="1" fill-rule="nonzero"/><path fill="#6d831d" d="M 174.425781 174.996094 C 180.175781 179.351562 187.636719 185.742188 189.726562 193.003906 L 174.425781 174.996094 " fill-opacity="1" fill-rule="nonzero"/><path fill="#6d831d" d="M 184.699219 194.363281 C 182.15625 192.714844 176.484375 193.152344 173.472656 193.515625 C 173.976562 193.882812 174.40625 194.273438 174.820312 194.644531 C 173.226562 195.039062 171.488281 195.527344 169.976562 196.199219 C 170.402344 196.394531 170.980469 196.523438 171.414062 196.707031 C 168.78125 197.566406 165.636719 197.035156 162.894531 197.863281 C 163.613281 198.035156 164.21875 198.300781 164.847656 198.503906 C 162.21875 198.3125 159.628906 198.363281 157.117188 199.03125 C 157.585938 199.242188 158.261719 199.683594 158.785156 199.894531 C 156.46875 201.023438 153.453125 201.148438 151.089844 202.195312 C 151.460938 202.367188 152.046875 202.523438 152.492188 202.726562 C 152.542969 202.707031 152.519531 203.085938 152.492188 203.070312 C 149.085938 203.238281 146.003906 203.652344 142.953125 205.289062 C 143.253906 205.429688 143.78125 205.617188 144.105469 205.769531 C 142.019531 205.894531 139.605469 206.464844 137.839844 207.785156 C 138.328125 207.699219 139.046875 207.589844 139.382812 207.554688 C 138.207031 207.859375 136.972656 208.914062 135.910156 209.464844 C 135.929688 209.769531 136.382812 209.863281 136.421875 210.238281 C 133.898438 211.222656 131.320312 212.246094 129.199219 213.816406 C 129.898438 213.519531 130.746094 213.304688 131.4375 213.058594 C 130.0625 214.25 128.578125 215.949219 127.804688 217.769531 C 128.238281 217.757812 128.570312 217.496094 128.988281 217.523438 C 127.851562 218.890625 126.714844 220.296875 125.757812 221.824219 C 126.308594 221.515625 127.183594 221.242188 127.734375 220.96875 C 126.703125 222.308594 125.621094 223.980469 125.222656 225.652344 C 148.660156 207.527344 183.1875 200.417969 184.625 200.238281 L 184.699219 194.363281 " fill-opacity="1" fill-rule="nonzero"/><path fill="#6d831d" d="M 219.375 196.707031 C 223.78125 196.539062 229.222656 197.957031 234.039062 197.878906 C 233.632812 198.027344 232.964844 198.4375 232.523438 198.628906 C 234.578125 199.042969 236.953125 199.597656 238.761719 200.515625 C 238.167969 200.65625 237.976562 200.710938 237.636719 200.898438 C 240.425781 201.253906 243.242188 202.101562 245.675781 203.476562 C 245.769531 203.472656 245.773438 203.472656 245.683594 203.472656 C 245.082031 203.503906 244.453125 203.605469 243.882812 203.628906 C 245.605469 204.417969 247.636719 205.089844 249.21875 206.128906 C 248.964844 206.074219 248.238281 205.886719 248.191406 205.886719 C 252.199219 209.332031 258.125 217.679688 258.125 217.769531 C 256.109375 219.019531 221.933594 199.554688 217.402344 199.574219 L 219.375 196.707031 " fill-opacity="1" fill-rule="nonzero"/><path fill="#5d7019" d="M 214.269531 200.152344 C 218.195312 199.371094 223.398438 198.527344 227.296875 198.835938 C 226.613281 199.007812 225.839844 199.847656 225.175781 200.050781 C 227.734375 200.027344 229.757812 200.117188 232.195312 200.925781 C 232.117188 201.070312 231.59375 200.765625 231.503906 201.015625 C 233.445312 201.164062 235.484375 201.347656 237.355469 201.972656 C 237.160156 202.070312 236.613281 202.054688 236.382812 202.191406 C 238.527344 202.933594 240.960938 203.605469 242.875 204.503906 C 242.503906 204.675781 242.035156 204.800781 241.6875 205.003906 C 243.195312 205.332031 244.566406 206.339844 245.78125 207.054688 C 245.589844 207.300781 245.097656 207.289062 244.898438 207.550781 C 247.238281 208.332031 249.71875 209.007812 251.996094 209.980469 C 251.996094 209.980469 251.203125 210.152344 251.128906 210.226562 C 251.546875 210.871094 252.222656 210.980469 252.535156 211.867188 C 252.488281 212.125 251.832031 211.917969 251.792969 212.039062 C 253.941406 213.996094 256.421875 215.648438 258.125 217.769531 C 254.992188 220.386719 211.292969 203.167969 209.324219 202.144531 L 214.269531 200.152344 " fill-opacity="1" fill-rule="nonzero"/><path fill="#6d831d" d="M 147.792969 160.289062 C 149.226562 158.847656 150.535156 157.152344 152.457031 156.273438 C 152.445312 156.523438 152.136719 156.792969 152.199219 157.054688 C 153.542969 155.855469 154.871094 154.578125 156.21875 153.359375 C 156.035156 153.894531 155.964844 154.539062 155.804688 155.066406 C 156.976562 153.632812 158.441406 152.492188 160.230469 151.902344 C 160.121094 152.257812 159.816406 152.308594 159.761719 152.683594 C 161.332031 152.019531 163.367188 151.15625 164.957031 151.03125 C 164.683594 151.292969 164.328125 151.570312 164.035156 151.851562 C 165.894531 151.480469 167.761719 151.074219 169.691406 151.039062 C 169.621094 151.175781 169.179688 151.414062 169.105469 151.640625 C 171.621094 151.847656 174.074219 152.074219 176.335938 153.019531 C 175.804688 153.035156 175.328125 153.078125 174.820312 153.140625 C 176.121094 153.585938 177.070312 154.449219 177.808594 155.386719 C 177.472656 155.417969 177.039062 155.328125 176.71875 155.425781 C 177.96875 156.207031 178.953125 157.433594 179.480469 158.8125 C 179.144531 158.761719 178.777344 158.554688 178.460938 158.535156 C 179.277344 160.035156 180 161.652344 180.226562 163.371094 C 179.988281 163.039062 179.769531 162.640625 179.507812 162.367188 C 179.777344 163.949219 180.085938 165.511719 180.40625 167.054688 C 180.449219 167.132812 180.449219 167.132812 180.410156 167.054688 C 180.1875 166.757812 180.035156 166.4375 179.820312 166.136719 C 180.082031 167.53125 180.285156 168.9375 180.320312 170.382812 C 180.324219 170.457031 180.324219 170.457031 180.324219 170.382812 C 180.148438 169.976562 180.003906 169.550781 179.820312 169.152344 C 179.835938 170.488281 179.878906 172.132812 179.910156 173.292969 C 179.675781 172.769531 179.335938 172.273438 179.097656 171.75 C 179.195312 172.816406 178.976562 173.953125 179.0625 175.027344 C 178.820312 174.839844 178.632812 174.550781 178.367188 174.324219 C 178.25 175.917969 178.101562 177.488281 178.015625 179.085938 C 177.640625 178.472656 176.859375 177.949219 176.496094 177.445312 C 176.546875 178.902344 176.570312 180.34375 176.460938 181.785156 C 176.214844 181.617188 175.96875 181.277344 175.667969 181.078125 C 175.769531 182.140625 175.417969 183.339844 175.546875 184.460938 C 175.386719 184.472656 175.0625 184.167969 174.722656 184.199219 C 174.78125 185.433594 174.472656 186.742188 174.421875 187.820312 C 173.925781 183.667969 149.648438 162.164062 147.792969 159.871094 L 147.792969 160.289062 " fill-opacity="1" fill-rule="nonzero"/><path fill="#9bb853" d="M 135.542969 154.0625 C 136.0625 156.226562 137.402344 158.203125 137.9375 160.382812 C 138.167969 160.1875 138.179688 159.785156 138.355469 159.589844 C 139.128906 161.03125 139.757812 162.484375 140.230469 164.019531 C 140.257812 164.042969 140.398438 163.445312 140.480469 163.410156 C 140.789062 164.171875 141.226562 164.921875 141.550781 165.660156 C 141.632812 165.257812 141.617188 164.855469 141.675781 164.449219 C 142.421875 165.894531 142.960938 167.578125 143.535156 169.085938 C 143.421875 168.246094 143.460938 167.398438 143.332031 166.632812 C 144.253906 167.878906 144.957031 169.398438 145.636719 170.855469 C 145.757812 170.574219 145.625 170.257812 145.730469 169.964844 C 147.1875 171.253906 148.71875 173.066406 149.851562 174.804688 C 149.707031 174.222656 149.757812 173.476562 149.628906 172.878906 C 149.582031 172.859375 149.566406 172.828125 149.574219 172.789062 C 151.210938 175.914062 152.382812 176.945312 153.375 177.945312 C 153.484375 177.902344 153.332031 177.382812 153.394531 177.355469 C 154.300781 178.351562 155.238281 179.246094 155.984375 180.328125 C 156.011719 179.898438 155.941406 179.511719 155.90625 179.113281 C 155.914062 179.113281 156.308594 179.082031 156.308594 179.085938 C 156.875 179.863281 157.84375 180.65625 158.394531 181.5625 C 158.292969 181.195312 158.222656 180.644531 158.171875 180.277344 C 159.027344 181.558594 160.304688 182.550781 161.570312 183.351562 C 161.28125 182.867188 161.085938 182.277344 160.792969 181.8125 C 162.378906 182.46875 163.871094 183.566406 165.242188 184.675781 C 164.972656 184.175781 164.796875 183.640625 164.53125 183.167969 C 166.417969 183.84375 168.304688 184.964844 169.917969 186.148438 C 169.730469 185.851562 169.511719 185.265625 169.378906 184.902344 C 169.339844 184.832031 169.316406 184.824219 169.316406 184.875 C 171.113281 185.941406 173.640625 185.691406 174.40625 188 C 173.414062 183.574219 167.761719 178.875 164.625 175.875 C 160.195312 171.640625 148.964844 161.121094 147.792969 159.871094 C 147.792969 159.871094 139.726562 155.121094 135.542969 154.0625 " fill-opacity="1" fill-rule="nonzero"/><path fill="#5d7019" d="M 150.339844 160.480469 C 155.628906 157.835938 166.875 152.085938 172.132812 156.664062 C 172.152344 156.753906 172.191406 156.785156 172.265625 156.761719 C 168.144531 154.722656 159.058594 156.960938 157.375 161.738281 C 159.085938 161.554688 160.765625 161.878906 162.328125 162.390625 C 160.835938 162.652344 158.898438 163.152344 157.753906 164.285156 C 164.082031 165.78125 172.539062 162.574219 176.589844 169.644531 C 172.324219 168.367188 165.324219 165.746094 161.179688 168.378906 C 161.191406 168.390625 161.21875 168.867188 161.210938 168.871094 C 164.601562 170.320312 169.246094 171.304688 170.871094 174.878906 C 169.671875 174.351562 168.128906 174.316406 166.9375 173.902344 C 170.132812 176.292969 171.992188 179.367188 172.675781 183.269531 C 172.683594 183.210938 172.671875 183.152344 172.644531 183.097656 C 167.910156 175.105469 159.835938 169.773438 153.238281 163.566406 C 152.441406 162.816406 151.703125 162.050781 150.851562 161.371094 L 150.339844 160.480469 " fill-opacity="1" fill-rule="nonzero"/><path fill="#7f9339" d="M 148.464844 161.210938 C 144.105469 157.925781 141.214844 161.226562 144.199219 165.613281 C 143.769531 164.507812 143.882812 163.085938 143.683594 161.949219 C 147.996094 160.757812 150.199219 164.210938 149.941406 168.105469 C 150.191406 167.480469 150.402344 166.730469 150.605469 166.183594 C 152.789062 170.332031 155.1875 176.246094 159.285156 179.003906 C 157.609375 176.488281 155.996094 173.691406 155.261719 170.867188 C 158.984375 173.171875 162.5 176.777344 165.589844 180.214844 C 162.53125 172.492188 153.175781 169.144531 149.535156 162.101562 L 148.464844 161.210938 " fill-opacity="1" fill-rule="nonzero"/><path fill="#9bb853" d="M 222.9375 190.417969 C 222.53125 188.554688 221.253906 187.210938 219.734375 186.066406 C 219.601562 186.285156 219.835938 186.667969 219.695312 186.871094 C 218.09375 186.269531 216.792969 184.921875 215.652344 183.601562 C 215.601562 183.855469 215.800781 184.183594 215.746094 184.488281 C 214.34375 183.777344 212.84375 182.707031 211.550781 181.703125 C 211.613281 182.085938 211.75 182.449219 211.792969 182.820312 C 210.242188 182.085938 208.4375 181.230469 206.945312 180.464844 C 206.949219 180.777344 207.203125 181.066406 207.230469 181.363281 C 205.582031 180.773438 203.964844 180.023438 202.269531 179.628906 C 202.285156 179.972656 202.425781 180.355469 202.445312 180.746094 C 200.945312 180.910156 199.238281 180.789062 197.792969 180.839844 C 198.28125 181.050781 198.699219 181.320312 199.199219 181.59375 C 197.5 181.507812 195.730469 181.488281 194.078125 181.269531 C 194.277344 181.550781 194.613281 181.730469 194.839844 182.007812 C 193.460938 182.101562 192.042969 182.304688 190.75 182.632812 C 191.023438 182.785156 191.363281 182.679688 191.636719 182.863281 C 190.539062 183.640625 189.300781 184.566406 188.332031 185.523438 C 188.800781 185.542969 189.34375 185.605469 189.773438 185.632812 C 188.648438 186.761719 187.21875 187.773438 186.175781 188.976562 C 186.875 188.972656 187.511719 189.210938 188.214844 189.191406 C 186.527344 190.335938 184.734375 191.699219 183.378906 193.347656 C 183.53125 193.347656 183.929688 192.964844 184.144531 192.933594 C 184.175781 192.972656 184.21875 193.003906 184.25 193.039062 C 183.777344 193.542969 183.238281 194.566406 182.835938 195.082031 C 183.136719 195.113281 183.675781 194.984375 183.941406 195.117188 C 183.023438 196.089844 182.59375 197.164062 182.109375 198.414062 C 182.566406 197.910156 183.226562 197.566406 183.742188 197.109375 C 183.257812 198.289062 182.859375 199.671875 182.625 201.003906 C 182.984375 200.800781 183.53125 200.554688 183.9375 200.304688 C 183.484375 200.871094 183.207031 201.855469 182.753906 202.480469 C 183.390625 202.25 184.160156 202.363281 184.777344 202.183594 C 183.851562 203.769531 183.019531 205.367188 182.335938 207.035156 C 182.726562 206.871094 183.246094 206.691406 183.628906 206.542969 C 183.175781 207.738281 183.039062 209.101562 182.726562 210.355469 C 183.125 210.292969 183.535156 210.128906 183.941406 210.070312 C 182.839844 212.503906 181.664062 214.671875 181.355469 217.410156 C 184.171875 213.824219 218.714844 194.195312 223.769531 190.523438 L 222.9375 190.417969 " fill-opacity="1" fill-rule="nonzero"/><path fill="#6d831d" d="M 223.140625 191.042969 C 225.398438 189.566406 228.011719 186.828125 231.445312 186.386719 C 229.238281 189.710938 225.804688 192.414062 223.550781 195.789062 C 223.519531 195.367188 223.539062 194.910156 223.546875 194.492188 C 221.609375 195.605469 220.226562 197.683594 218.476562 199.183594 C 218.511719 199.042969 218.804688 198.585938 218.867188 198.328125 C 217.757812 199.230469 216.636719 200.257812 215.574219 201.222656 C 215.683594 200.8125 215.835938 200.300781 215.957031 199.894531 C 214.234375 200.96875 212.660156 202.632812 211.207031 204.027344 C 211.382812 203.527344 211.527344 202.894531 211.691406 202.382812 C 210.363281 203.171875 209.269531 204.546875 208.296875 205.789062 C 208.355469 205.394531 208.515625 204.964844 208.578125 204.570312 C 207.839844 205.246094 206.660156 205.984375 205.9375 206.828125 C 206.109375 206.363281 206.332031 205.90625 206.496094 205.503906 C 205.023438 206.066406 203.769531 207.140625 202.453125 208.152344 C 202.59375 207.753906 202.8125 207.347656 202.96875 206.964844 C 201.054688 207.496094 199.371094 208.949219 197.792969 210.242188 C 197.71875 210.007812 198.027344 209.726562 197.976562 209.453125 C 196.527344 210.042969 195.414062 211.332031 194.164062 212.226562 C 194.164062 211.914062 194.421875 211.675781 194.421875 211.402344 C 192.488281 212.476562 190.699219 214.214844 188.757812 215.457031 C 188.824219 215.132812 189.070312 214.859375 189.144531 214.550781 C 186.40625 215.597656 183.6875 216.863281 181.0625 218.046875 C 189.5 208.339844 199.683594 201.703125 211.292969 196.320312 C 215.113281 194.550781 223.140625 191.042969 223.140625 191.042969 " fill-opacity="1" fill-rule="nonzero"/><path fill="#7f9339" d="M 221.6875 190.558594 C 219.625 186.527344 210.058594 184.066406 205.777344 184.519531 C 208.492188 186.035156 214.8125 186.679688 215.375 190.3125 C 213.9375 190.746094 212.21875 190.625 210.789062 190.203125 C 211.363281 190.628906 211.9375 191.441406 212.417969 191.828125 C 206.1875 194.226562 194.511719 184.207031 188.480469 191.691406 C 193.148438 191.988281 201.953125 190.957031 205.199219 194.917969 C 203.175781 195.933594 200.457031 195.195312 198.914062 196.636719 C 199.917969 196.851562 200.90625 197.746094 201.507812 197.984375 C 196.707031 199.117188 188.65625 198.699219 186.53125 204.402344 C 189.480469 203.359375 192.6875 201.503906 195.90625 201.230469 C 192.933594 205.113281 187.652344 206.519531 185.160156 211.164062 C 195.847656 204.980469 205.308594 196.832031 217.226562 192.589844 C 218.765625 192.039062 220.351562 191.613281 221.917969 191.132812 L 221.6875 190.558594 " fill-opacity="1" fill-rule="nonzero"/><path fill="#ce2c24" d="M 218.5 55.292969 C 223.957031 42.800781 226.089844 51.441406 229.570312 54.175781 C 234.953125 58.402344 238.800781 55.378906 241.328125 56.933594 C 242.601562 57.714844 242.578125 57.761719 243.191406 60.113281 C 245.1875 67.820312 241.539062 76.316406 249.375 81.304688 C 244.699219 83.601562 244.320312 87.105469 240.316406 88.285156 C 237.132812 75.929688 218.5 55.292969 218.5 55.292969 " fill-opacity="1" fill-rule="nonzero"/><path fill="#ec1c24" d="M 160.285156 67.878906 C 156.667969 65.636719 152.902344 66.964844 149.894531 69.285156 C 149.894531 69.285156 149.894531 69.585938 149.894531 69.585938 C 153.078125 68.992188 151.199219 73.363281 154.886719 73.507812 C 156.078125 78.125 161.949219 79.347656 160.816406 85.15625 C 162.601562 85.648438 164.699219 86.207031 165.5625 87.882812 C 168.847656 78.824219 160.285156 67.878906 160.285156 67.878906 " fill-opacity="1" fill-rule="nonzero"/><path fill="#ce2c24" d="M 189.339844 59.539062 C 189.769531 57.503906 188.265625 55.527344 188.773438 55.023438 C 190.597656 53.199219 192.390625 52.011719 194.214844 53.832031 C 195.984375 51.265625 197.164062 55.058594 197.667969 56.160156 L 189.339844 59.539062 " fill-opacity="1" fill-rule="nonzero"/><path fill="#ec1c24" d="M 240.894531 91.117188 C 246.773438 92.761719 252.222656 96.730469 256.234375 102.695312 C 250.585938 104.449219 247.507812 109.996094 245.746094 111.757812 C 240.710938 116.792969 231.851562 109.09375 230.144531 103.863281 L 240.894531 91.117188 " fill-opacity="1" fill-rule="nonzero"/><path fill="#e63621" d="M 176.941406 60.035156 C 177.308594 59.511719 178.40625 59.625 178.839844 59.820312 C 178.914062 59.402344 178.289062 58.253906 178.523438 57.933594 C 180.136719 55.675781 180.765625 63.441406 194.1875 59.308594 C 196.058594 58.730469 205.128906 51.070312 213.019531 49.835938 C 217.960938 52.3125 218.855469 58.125 223.957031 61.058594 C 227.257812 62.957031 225.488281 57.882812 228.203125 61.042969 C 229.339844 62.375 230.339844 69.402344 231.429688 71.449219 C 233.992188 76.304688 237.71875 80.046875 240.667969 84.050781 C 244.003906 88.558594 242.84375 95.894531 244.300781 100.644531 C 238.773438 100.089844 233.828125 104.425781 228.78125 105.832031 C 223.921875 98.484375 209.566406 112.234375 202.320312 107.480469 L 176.941406 60.035156 " fill-opacity="1" fill-rule="nonzero"/><path fill="#ce2c24" d="M 241.28125 91.128906 C 245.089844 92.285156 251.925781 95.871094 256.050781 102.566406 C 250.070312 104.910156 248.527344 112.433594 243.894531 115.355469 C 238.996094 118.441406 236.082031 111.535156 231.683594 109.253906 C 229.511719 108.128906 223.132812 109.167969 221.488281 108.089844 L 241.28125 91.128906 " fill-opacity="1" fill-rule="nonzero"/><path fill="#db3023" d="M 164.984375 86.664062 C 166.117188 82.265625 165.035156 78.632812 163.503906 75.101562 C 162.75 73.375 161.292969 72.269531 160.53125 70.507812 C 159.382812 67.859375 159.050781 64.488281 159.050781 61.324219 C 159.050781 58.398438 160.246094 54.871094 162.921875 50.929688 C 164.300781 51.121094 178.148438 64.257812 181.828125 65.277344 C 191.96875 68.082031 198.945312 70.585938 206.480469 78.269531 C 210.964844 82.847656 216.414062 90.414062 218.234375 96.382812 C 217.144531 97.621094 212.785156 98.257812 214.75 100.226562 C 216.753906 102.230469 212.453125 106.179688 210.488281 107.300781 C 205.84375 109.941406 206.84375 110.027344 200.769531 108.785156 C 196.996094 108.011719 191.796875 106.496094 188.144531 108.714844 C 186.914062 98.441406 172.285156 92.992188 165.328125 87.808594 L 164.984375 86.664062 " fill-opacity="1" fill-rule="nonzero"/><path fill="#e63621" d="M 155.9375 91.015625 C 158 96.375 159.933594 100.898438 162.824219 106.917969 C 164.097656 107.679688 164.722656 108.03125 165.78125 109.234375 C 168.054688 110.125 189.515625 111.972656 189.515625 108.050781 C 187.871094 106.472656 185.582031 102.667969 183.8125 101.234375 C 181.160156 99.089844 178.726562 99 175.671875 97.632812 C 170.367188 95.257812 167.855469 87.535156 161.660156 88.269531 C 160.875 88.363281 155.9375 91.015625 155.9375 91.015625 " fill-opacity="1" fill-rule="nonzero"/><path fill="#ce2c24" d="M 157.308594 109.570312 C 151.925781 111.78125 147.472656 111.460938 142.710938 115.371094 C 138.957031 118.457031 136.667969 121.269531 131.773438 121.839844 C 133.257812 123.574219 133.246094 126.519531 134.367188 128.351562 C 136.726562 132.207031 138.636719 129.453125 141.378906 130.042969 C 142.84375 130.355469 142.953125 131.925781 144.828125 131.792969 C 146.90625 131.648438 148.027344 129.351562 150.324219 129.828125 C 150.363281 129.835938 150.402344 128.820312 150.445312 128.828125 C 150.449219 130.402344 151.160156 131.230469 151.925781 132.378906 C 153.148438 132.378906 154.894531 127.160156 155.9375 126.117188 C 158.074219 123.980469 155.761719 128.195312 157.554688 128.117188 C 159.738281 128.023438 159.550781 123.835938 166.300781 120.5 C 160.988281 118.796875 166.714844 110.054688 158.800781 110.257812 L 157.308594 109.570312 " fill-opacity="1" fill-rule="nonzero"/><path fill="#db3023" d="M 229.136719 106.933594 C 230.542969 108.257812 230.890625 109.777344 232.347656 110.855469 C 233.109375 111.417969 236.316406 113.554688 237.035156 113.929688 C 239.667969 115.300781 239.859375 114.894531 242.402344 114.152344 C 243.105469 113.945312 243.140625 112.238281 244.03125 111.972656 C 245.648438 111.480469 245.261719 113.246094 246.199219 113.378906 C 247.425781 113.554688 247.207031 113.460938 247.953125 112.589844 C 251.832031 113.847656 253.695312 117.253906 255.027344 116.800781 C 255.125 117.066406 255.335938 117.917969 255.507812 118.136719 C 257.101562 117.558594 259.070312 115.941406 260.144531 119.054688 C 256.667969 121.824219 258.023438 128.863281 252.25 129.816406 C 248.796875 130.386719 245.625 127.859375 242.308594 125.925781 C 238.476562 123.691406 236.859375 123.925781 232.941406 124.625 C 232.214844 122.585938 229.277344 123.171875 229.277344 119.480469 C 225.191406 119.480469 223.492188 115.777344 220.714844 114.800781 C 217.179688 113.550781 213.898438 116.261719 217.195312 112.664062 C 218.84375 110.863281 222.214844 108.75 224.550781 107.878906 C 225.941406 107.363281 229.136719 106.933594 229.136719 106.933594 " fill-opacity="1" fill-rule="nonzero"/><path fill="#f54437" d="M 156.738281 110.144531 C 158.457031 106.867188 165.519531 103.773438 167.066406 109.207031 C 170.183594 107.652344 173.671875 107.269531 176.09375 110.128906 C 179.171875 107.347656 184.667969 107.84375 188.246094 109.445312 C 190.472656 103.332031 197.339844 108.121094 200.617188 108.507812 C 202.59375 108.742188 203.988281 107.597656 206.191406 107.277344 C 208.519531 106.941406 208.996094 108.125 211.945312 106.679688 C 214.734375 105.316406 226.839844 97.824219 227.054688 106.003906 C 226.410156 105.640625 225.535156 105.621094 224.886719 105.179688 C 228.371094 109.726562 217.726562 111.75 217.007812 114.820312 C 219.078125 114.539062 221.898438 115.527344 222.128906 117.53125 C 225.867188 117.570312 225.226562 120.871094 229.808594 119.433594 C 229.183594 122.925781 233.011719 122.570312 233.378906 125.347656 C 233.878906 129.1875 230.628906 130 227.554688 129.28125 C 227.902344 134.652344 213.519531 146.554688 210.8125 141.769531 C 209.183594 142.835938 207.085938 143.730469 205.425781 142.320312 C 203.804688 144.058594 200.402344 144.160156 200.476562 141.207031 C 197.894531 141.863281 195.902344 140.210938 195.089844 137.761719 C 191.066406 143.773438 189.246094 143.359375 186.09375 138.144531 C 185.105469 136.507812 182.859375 132.324219 181.25 131.1875 C 178.941406 129.550781 179.40625 131.414062 177.472656 130.710938 C 177.417969 130.769531 175.964844 130.636719 175.890625 130.628906 C 174.398438 125.199219 164.367188 124.925781 165.058594 120.445312 C 156.15625 116.730469 165.558594 109.722656 156.160156 110.714844 L 156.738281 110.144531 " fill-opacity="1" fill-rule="nonzero"/><path fill="#f65b50" d="M 180.441406 61.746094 C 189.164062 59.582031 198.792969 54.605469 207.257812 51.410156 C 208.988281 50.753906 210.761719 50.652344 212.507812 50.261719 C 207.578125 53.554688 204.597656 54.589844 202.4375 54.589844 C 202.71875 56.269531 200.277344 57.421875 198.894531 58.347656 C 196.773438 59.769531 193.78125 60.597656 191.328125 61.117188 C 188.132812 61.796875 183.828125 60.769531 181.023438 62.269531 L 180.441406 61.746094 " fill-opacity="1" fill-rule="nonzero"/><path fill="#f65b50" d="M 212.507812 50.261719 C 215.296875 50.425781 214.113281 52.039062 214.933594 53.910156 C 215.855469 56.03125 217.226562 57.933594 220.351562 58.675781 C 221.117188 59.441406 221.289062 62.71875 225.816406 61.4375 C 226.480469 61.25 226.425781 60.570312 226.59375 60.113281 C 226.550781 60.078125 226.519531 60.039062 226.480469 60 C 221.726562 63.484375 216.222656 46.550781 212.507812 50.261719 " fill-opacity="1" fill-rule="nonzero"/><path fill="#f65b50" d="M 216.921875 52.144531 C 218.808594 50.0625 223.015625 47.1875 224.96875 49.144531 C 222.3125 48.921875 219.027344 52.367188 219.632812 56.132812 L 216.921875 52.144531 " fill-opacity="1" fill-rule="nonzero"/><path fill="#f65b50" d="M 242.65625 58.257812 C 244.132812 63.96875 237.144531 77.527344 247.121094 81.277344 C 247.742188 81.511719 248.855469 81.394531 249.476562 81.242188 C 249.382812 77.726562 245.390625 74.453125 244.511719 70.945312 C 243.597656 67.285156 244.3125 63.054688 243.140625 59.492188 C 242.972656 59.007812 242.859375 58.671875 242.65625 58.257812 " fill-opacity="1" fill-rule="nonzero"/><path fill="#f65b50" d="M 228.203125 61.042969 C 228.203125 64.792969 225.511719 65.292969 226.605469 69.742188 C 227.816406 74.691406 230.417969 78.054688 234.296875 80.445312 C 236.222656 81.636719 237.78125 83.113281 238.199219 84.675781 C 238.539062 85.949219 237.726562 87.367188 238.945312 88.011719 C 240.882812 88.964844 241.910156 88.167969 242.4375 87.640625 C 240.808594 83.769531 238.117188 78.792969 235.195312 74.203125 C 232.089844 69.320312 228.90625 59.863281 227.980469 60.792969 L 228.203125 61.042969 " fill-opacity="1" fill-rule="nonzero"/><path fill="#f65b50" d="M 229.480469 106.363281 C 229.570312 108.910156 227.339844 114.011719 231.632812 114.964844 C 233.964844 117.296875 236.644531 116.378906 238.523438 115.066406 C 239.351562 116.078125 240.746094 116.339844 240.492188 115.222656 C 240.148438 111.136719 240.902344 111.25 237.121094 109.78125 C 234.347656 108.707031 230.828125 109.355469 229.59375 105.90625 L 229.480469 106.363281 " fill-opacity="1" fill-rule="nonzero"/><path fill="#f65b50" d="M 162.921875 50.929688 C 162.671875 58.304688 164.710938 59.445312 166.613281 61.347656 C 168.015625 62.746094 167.683594 64.472656 169.3125 65.714844 C 170.898438 66.933594 173.484375 66.507812 174.953125 67.421875 C 177.621094 69.082031 175.703125 72.917969 183.769531 72.394531 C 187.945312 76.566406 191.214844 72.414062 194.015625 70.695312 C 187.882812 78.480469 201.527344 85.675781 205.640625 90.285156 C 209.660156 94.792969 212.5 94.820312 218.550781 95.464844 C 215.078125 86.851562 206.65625 76.800781 198.953125 71.691406 C 191.554688 66.78125 182.625 63.019531 174.640625 58.804688 C 170.722656 56.738281 168.304688 53.355469 164.476562 51.789062 L 162.921875 50.929688 " fill-opacity="1" fill-rule="nonzero"/><path fill="#f65b50" d="M 218.367188 95.710938 C 216.113281 96.535156 214.4375 98.019531 213.785156 99.660156 C 213.195312 101.140625 214.160156 102.289062 213.625 103.296875 C 212.734375 104.984375 211.40625 105.457031 210.488281 107.300781 C 218.585938 102.847656 216.007812 100.085938 218.550781 95.464844 L 218.367188 95.710938 " fill-opacity="1" fill-rule="nonzero"/><path fill="#f65b50" d="M 136.34375 79.21875 C 142.832031 73.484375 157.386719 81.71875 163.609375 85.519531 C 165.722656 86.804688 166.5 87.925781 168.878906 88.839844 C 170.882812 89.605469 173.261719 89.863281 175.054688 90.933594 C 178.121094 92.765625 181.503906 96.960938 183.6875 99.6875 C 185.851562 102.394531 187.859375 105.023438 189.355469 108.199219 C 185.726562 102.734375 174.011719 105.589844 172.324219 98.472656 C 168.917969 101.691406 165.792969 92.402344 164.628906 89.722656 C 162.476562 91.917969 159.382812 93.644531 154.542969 91.925781 C 143.550781 91.679688 140.835938 84.054688 138.269531 81.074219 C 137.613281 80.320312 136.824219 79.9375 135.886719 79.675781 L 136.34375 79.21875 " fill-opacity="1" fill-rule="nonzero"/><path fill="#f65b50" d="M 159.257812 107.851562 C 155.128906 108.441406 150.605469 109.277344 146.996094 111.664062 C 143.363281 114.070312 140.800781 117.847656 136.949219 119.90625 C 135 120.945312 133.480469 121.644531 131.257812 121.730469 C 132.308594 122.726562 133.238281 124.582031 134.738281 124.347656 C 139.417969 123.613281 137.253906 121.289062 138.949219 120.023438 C 140.824219 118.628906 141.464844 119.730469 142.671875 118.820312 C 144.441406 117.484375 144.648438 115.675781 146.054688 114.03125 C 149.617188 109.855469 155.359375 112.730469 159.257812 108.996094 L 159.257812 107.851562 " fill-opacity="1" fill-rule="nonzero"/><path fill="#db3023" d="M 178.445312 110.277344 C 176.238281 111.058594 174.339844 112.792969 174.277344 115.179688 C 176.820312 114.199219 178.769531 112.039062 181.53125 111.535156 C 181.371094 112.472656 181.71875 114.097656 181.507812 115.023438 C 182.101562 115.042969 182.695312 114.390625 183.1875 114.144531 C 183.234375 115.039062 183.269531 115.914062 183.554688 116.707031 C 185.296875 115.503906 186.734375 113.160156 188.574219 111.835938 C 188.613281 114.472656 188.28125 117.554688 189.21875 119.675781 C 189.515625 118.679688 190.371094 117.542969 190.761719 116.476562 C 192.8125 123.398438 194.292969 129.015625 193.042969 136.371094 C 195.097656 130.460938 193.757812 121.046875 196.59375 116.117188 C 196.585938 116.078125 197.03125 116.152344 197.027344 116.152344 C 197.078125 116.207031 197.128906 116.257812 197.1875 116.308594 C 197.058594 117.933594 197.980469 119.554688 198.136719 120.753906 C 198.867188 119.386719 200.449219 117.785156 201.035156 116.292969 C 200.976562 117.277344 201.253906 118.207031 201.238281 119.183594 C 201.746094 118.351562 203.347656 117.453125 203.984375 116.5625 C 206.269531 118.933594 207.21875 122.222656 207.703125 125.328125 C 207.683594 125.402344 208.269531 125.339844 208.257812 125.332031 C 208.34375 124.117188 209.015625 122.820312 209.210938 121.796875 C 210.167969 123.410156 216.152344 133.917969 218.453125 128.746094 C 220.3125 124.570312 210.898438 122.011719 211.050781 118.148438 C 212.101562 118.492188 213.515625 118.289062 214.582031 118.714844 C 212.269531 115.554688 212.050781 111.941406 216.269531 110.589844 C 216.269531 110.589844 216.292969 109.832031 216.269531 109.847656 C 214.675781 109.03125 212.570312 108.550781 210.777344 108.609375 C 211.085938 109.960938 210.597656 111.851562 210.761719 112.902344 C 209.652344 111.175781 207.996094 109.992188 206.015625 109.6875 C 205.515625 111.097656 204.703125 111.007812 204.171875 111.796875 C 201.59375 105.839844 199.597656 114.625 197.523438 109.992188 C 196.5625 111.089844 195.34375 111.691406 194.773438 113.34375 C 196.5 106.214844 193.707031 109.082031 189.832031 109.355469 C 186.382812 109.597656 182.519531 108.433594 178.90625 109.972656 L 178.445312 110.277344 " fill-opacity="1" fill-rule="nonzero"/><path fill="#f87369" d="M 175.734375 116.585938 C 174.488281 117.964844 173.671875 119.605469 173.582031 121.414062 C 174.0625 120.988281 175.0625 120.660156 175.582031 120.3125 C 175.621094 120.355469 175.667969 120.398438 175.707031 120.441406 C 175.472656 122.058594 175.820312 123.726562 176.246094 125.023438 C 176.601562 124.332031 177.320312 123.695312 177.625 123.238281 C 177.5 124.339844 177.828125 125.714844 177.777344 126.683594 C 178.238281 126.183594 179.0625 125.640625 179.410156 125.28125 C 179.746094 125.800781 179.875 126.558594 180.195312 127.066406 C 180.316406 126.988281 180.9375 126.160156 180.960938 126.164062 C 181.347656 127.058594 182.667969 128.234375 183.011719 129.230469 C 184.285156 127.421875 184.851562 125.164062 186.464844 123.878906 C 187.054688 126.769531 185.625 135.605469 188.332031 137.542969 C 192.800781 140.742188 193.402344 130.632812 192.710938 127.960938 C 192.664062 127.945312 192.625 127.933594 192.578125 127.921875 C 192.328125 128.273438 192.179688 128.820312 191.914062 129.207031 C 190.992188 127.054688 191.363281 124.195312 190.28125 122.058594 C 190.023438 122.574219 189.539062 123.234375 189.265625 123.742188 C 187.960938 122.410156 187.167969 120.613281 186.554688 118.78125 C 185.726562 119.371094 184.265625 120.179688 183.523438 121.570312 C 182.617188 120.039062 181.449219 118.996094 179.714844 119.621094 C 179.554688 118.152344 179.273438 116.554688 179.792969 115.050781 C 179.730469 115.015625 179.410156 114.789062 179.40625 114.699219 C 178.65625 114.757812 177.878906 115.007812 177.265625 115.308594 L 175.734375 116.585938 " fill-opacity="1" fill-rule="nonzero"/><path fill="#f87369" d="M 197.300781 123.730469 C 196.511719 127.894531 195.515625 133.609375 199.210938 136.519531 C 200.054688 137.1875 201.1875 135.640625 201.757812 135.976562 C 201.839844 136.019531 203.433594 137.5 203.421875 138.019531 C 203.371094 139.613281 206.039062 139.542969 207.121094 135.972656 C 207.132812 135.984375 207.652344 135.988281 207.640625 136.003906 C 212.230469 144.371094 224.46875 137.328125 221.792969 129.835938 C 217.703125 138.585938 214.113281 129.277344 211.207031 126.648438 C 207.648438 135.03125 207.074219 126.140625 205.308594 123.1875 C 201.695312 117.152344 202.496094 125.496094 199.722656 127.574219 C 198.773438 126.425781 197.515625 123.957031 197.820312 122.339844 L 197.300781 123.730469 " fill-opacity="1" fill-rule="nonzero"/><path fill="#ce2c24" d="M 167.824219 86.589844 C 168.550781 79.746094 162.945312 73.699219 163.816406 67.804688 C 167.96875 72.167969 167.363281 82.828125 172.421875 85.335938 C 172.335938 83.257812 173.070312 81.644531 173.648438 80.304688 C 173.648438 81.511719 174.136719 82.65625 174.289062 83.691406 C 174.574219 83.242188 174.847656 82.585938 175.175781 82.140625 C 175.753906 83.542969 177.429688 84.835938 177.988281 85.800781 C 178.851562 82.21875 179.804688 78.386719 182.757812 75.957031 C 182.753906 75.921875 183.046875 76.144531 183.03125 76.152344 C 182.507812 80.351562 180.46875 85.207031 182.144531 89.226562 C 182.601562 87.707031 183.472656 85.835938 183.640625 84.289062 C 183.644531 85.378906 183.8125 86.644531 183.820312 87.652344 C 185.21875 84.042969 185.574219 79.808594 187.800781 76.292969 C 187.714844 80.800781 185.800781 85.929688 186.757812 90.148438 C 188.011719 88.3125 189.117188 85.621094 190.144531 83.800781 C 189.933594 85.550781 190.023438 87.949219 189.980469 89.6875 C 190.449219 88.566406 191.488281 87.167969 191.953125 85.984375 C 191.6875 87.945312 192.148438 89.894531 192.597656 91.496094 C 193.695312 89.664062 194.605469 87.710938 195.25 85.679688 C 196.464844 89.613281 195.214844 93.691406 195.390625 97.792969 C 198.125 96.804688 201.117188 94.800781 204.421875 94.304688 C 204.425781 94.300781 207.375 94.410156 207.375 94.414062 C 207.578125 96.515625 202.421875 97.414062 201.695312 99.027344 C 204.488281 99.164062 207.394531 98.785156 209.972656 97.84375 C 208.917969 98.808594 208.234375 100.519531 207.394531 101.488281 C 208.140625 101.433594 208.640625 101.230469 209.34375 101.101562 C 206.519531 108.355469 200.464844 105.519531 194.175781 105.355469 C 190.425781 105.257812 191.515625 107.066406 188.886719 105.039062 C 186.640625 103.316406 184.296875 99.082031 182.5625 96.796875 C 179.050781 92.195312 176.03125 89.375 170.289062 88.589844 L 167.824219 86.589844 " fill-opacity="1" fill-rule="nonzero"/><path fill="#ce2c24" d="M 216.480469 103.851562 C 219.859375 101.628906 223.855469 99.671875 227.6875 100.601562 C 227.828125 100.6875 227.867188 99.957031 227.839844 99.964844 C 227.210938 99.78125 226.128906 99.277344 225.378906 99.019531 C 229.417969 96.632812 234.054688 94.179688 236.277344 89.847656 C 232.9375 91.027344 229.535156 93.136719 226.316406 94.570312 C 227.140625 93.492188 227.746094 92.019531 229.003906 90.890625 C 228.257812 91.234375 227.210938 91.4375 226.472656 91.800781 C 227.734375 87.929688 229.46875 84.652344 229.195312 80.304688 C 227.339844 81.691406 226.214844 84.335938 224.164062 85.652344 C 224.164062 83.476562 224.671875 81.289062 225.191406 79.226562 C 224.398438 79.699219 223.089844 79.851562 222.316406 80.261719 C 222.488281 76.15625 224.753906 72.191406 223.335938 68.148438 C 222.410156 68.894531 209.9375 84.445312 212.578125 72.921875 C 211.886719 73.375 210.316406 73.546875 209.554688 74.101562 C 209.367188 73.261719 209.152344 72.484375 209.1875 71.535156 C 208.476562 71.792969 207.691406 72 206.898438 72.105469 C 206.707031 68.886719 208.464844 65.632812 209.039062 62.460938 C 206.828125 62.925781 204.996094 64.328125 202.929688 65.339844 C 202.820312 61.386719 206.800781 59.535156 207.960938 56.15625 C 202.667969 57.496094 197.871094 68.207031 192.617188 63.226562 C 192.394531 63.445312 192.414062 64.546875 192.265625 64.878906 C 191.191406 64.523438 190.066406 64.628906 188.929688 64.464844 C 188.992188 65.246094 189.164062 65.070312 189.472656 65.714844 C 197.34375 68.660156 204.578125 74.730469 210.074219 80.542969 C 214.320312 85.027344 217.703125 91.242188 219.34375 95.425781 C 220.03125 97.179688 216.898438 102.351562 215.984375 103.972656 L 216.480469 103.851562 " fill-opacity="1" fill-rule="nonzero"/><path fill="#f8847c" d="M 195.8125 73.816406 C 199.105469 77.007812 202.050781 80.214844 205.191406 83.6875 C 207.621094 86.371094 212.242188 88.097656 213.417969 91.566406 C 213.378906 91.601562 213.335938 91.640625 213.304688 91.679688 C 209.976562 91.539062 208.457031 85.101562 205.644531 87.363281 C 203.414062 84.242188 202.222656 83.734375 199.128906 81.824219 C 196.015625 79.910156 192.769531 77.054688 194.769531 73.035156 L 195.8125 73.816406 " fill-opacity="1" fill-rule="nonzero"/><path fill="#f8847c" d="M 165.785156 53.449219 C 169.210938 54.410156 171.710938 57.773438 174.609375 59.746094 C 178.09375 62.125 182.335938 63.125 185.949219 65.390625 C 188.390625 66.921875 190.109375 68.453125 189.820312 71.75 C 189.777344 71.789062 189.746094 71.824219 189.707031 71.867188 C 187.011719 71.246094 186.679688 68.484375 184.664062 66.847656 C 182.398438 65.007812 179.855469 64.949219 177.148438 64.222656 C 178.484375 59.394531 171.164062 62.175781 169.226562 61.242188 C 166.824219 60.085938 165.539062 54.894531 164.265625 52.601562 L 165.785156 53.449219 " fill-opacity="1" fill-rule="nonzero"/><path fill="#f8847c" d="M 139.425781 79.191406 C 143.1875 77.863281 148.273438 78.957031 151.875 80.304688 C 153.890625 81.066406 162.144531 84.570312 162.960938 86.226562 C 162.960938 86.226562 164.167969 86.980469 164.234375 86.992188 C 163.367188 90.304688 160.035156 92.902344 156.324219 90.558594 C 161.933594 88.066406 158.179688 84.671875 153.359375 83.117188 C 150.507812 82.195312 150.359375 83.089844 147.84375 83.550781 C 147.089844 83.6875 146.621094 85.535156 145.648438 85.382812 C 143.476562 85.039062 145.074219 84.113281 144.019531 83.519531 C 143.132812 83.011719 142.699219 79.679688 138.4375 80.011719 L 139.425781 79.191406 " fill-opacity="1" fill-rule="nonzero"/><path fill="#f8847c" d="M 166.621094 89.742188 C 167.984375 90.933594 168.277344 95.042969 169.734375 95.832031 C 172.273438 97.207031 171.742188 93.738281 174.597656 94.441406 C 177.664062 95.199219 180.324219 100.207031 183.394531 101.816406 C 184.148438 102.207031 184.714844 102.964844 185.265625 103.628906 C 182.011719 96.707031 173.386719 90.628906 166.214844 88.792969 L 166.621094 89.742188 " fill-opacity="1" fill-rule="nonzero"/><path fill="#f8847c" d="M 158.230469 108.542969 C 156.269531 108.585938 154.261719 109.050781 152.976562 110.414062 C 154.738281 110.421875 156.503906 109.804688 158.097656 108.949219 L 158.230469 108.542969 " fill-opacity="1" fill-rule="nonzero"/><path fill="#f8847c" d="M 230.066406 108.40625 C 231.964844 112.269531 238.160156 108.363281 239.242188 112.441406 C 238.28125 112 236.328125 112.136719 235.234375 111.675781 C 235.332031 112.679688 235.988281 114.292969 235.050781 115.011719 C 233.726562 116.039062 232.429688 111.457031 230.769531 111.808594 C 230.300781 111.910156 230.449219 112.742188 230.238281 113.121094 C 229.910156 112.011719 229.828125 110.726562 229.929688 109.488281 L 230.066406 108.40625 " fill-opacity="1" fill-rule="nonzero"/><path fill="#f8847c" d="M 228.582031 63.097656 C 228.234375 67.476562 226.828125 75.332031 232.480469 77.007812 C 232.023438 75.179688 231.25 71.390625 231.316406 71.375 C 234.0625 70.65625 237.207031 81.273438 239.542969 84.148438 C 239.414062 77.683594 230.46875 70.273438 229.257812 63.503906 L 228.582031 63.097656 " fill-opacity="1" fill-rule="nonzero"/><path fill="#f8847c" d="M 242.757812 68.101562 C 243.015625 71.761719 241.144531 78.660156 246.550781 79.304688 C 246.421875 78.699219 245.671875 77.480469 246.1875 77.339844 C 247.585938 76.96875 247.648438 79.632812 248.445312 80.664062 C 248.851562 77.046875 244.023438 74.507812 243.316406 69.625 L 242.757812 68.101562 " fill-opacity="1" fill-rule="nonzero"/><path fill="#543822" d="M 158.714844 243.527344 C 158.714844 251.300781 152.410156 257.605469 144.632812 257.605469 C 136.851562 257.605469 130.550781 251.300781 130.550781 243.527344 C 130.550781 235.753906 136.851562 229.449219 144.632812 229.449219 C 152.410156 229.449219 158.714844 235.753906 158.714844 243.527344 " fill-opacity="1" fill-rule="nonzero"/><path fill="#543822" d="M 180.359375 243.527344 C 180.359375 251.300781 174.054688 257.605469 166.277344 257.605469 C 158.496094 257.605469 152.191406 251.300781 152.191406 243.527344 C 152.191406 235.753906 158.496094 229.449219 166.277344 229.449219 C 174.054688 229.449219 180.359375 235.753906 180.359375 243.527344 " fill-opacity="1" fill-rule="nonzero"/><path fill="#543822" d="M 202.003906 238.597656 C 202.003906 246.371094 195.699219 252.675781 187.921875 252.675781 C 180.144531 252.675781 173.835938 246.371094 173.835938 238.597656 C 173.835938 230.820312 180.144531 224.519531 187.921875 224.519531 C 195.699219 224.519531 202.003906 230.820312 202.003906 238.597656 " fill-opacity="1" fill-rule="nonzero"/><path fill="#543822" d="M 220.113281 243.527344 C 220.113281 251.300781 213.804688 257.605469 206.035156 257.605469 C 198.253906 257.605469 191.953125 251.300781 191.953125 243.527344 C 191.953125 235.753906 198.253906 229.449219 206.035156 229.449219 C 213.804688 229.449219 220.113281 235.753906 220.113281 243.527344 " fill-opacity="1" fill-rule="nonzero"/><path fill="#543822" d="M 243.96875 243.527344 C 243.96875 251.300781 237.664062 257.605469 229.886719 257.605469 C 222.105469 257.605469 215.800781 251.300781 215.800781 243.527344 C 215.800781 235.753906 222.105469 229.449219 229.886719 229.449219 C 237.664062 229.449219 243.96875 235.753906 243.96875 243.527344 " fill-opacity="1" fill-rule="nonzero"/><g clip-path="url(#210cd290d4)"><path fill="#a9663c" d="M 265.621094 239.210938 L 124.597656 239.210938 L 149.257812 337.476562 L 243.921875 337.476562 L 265.621094 239.210938 " fill-opacity="1" fill-rule="nonzero"/></g><g clip-path="url(#d56ca77300)"><path fill="#915733" d="M 265.621094 239.210938 L 196.125 239.210938 L 196.03125 319.710938 L 149.257812 337.476562 L 243.921875 337.476562 L 265.621094 239.210938 " fill-opacity="1" fill-rule="nonzero"/></g></svg>